<svg width="16" height="16" viewBox="0 0 16 16" xmlns="http://www.w3.org/2000/svg">
  
  <rect width="16" height="16" rx="2" ry="2" fill="#2B7FFF"/>
  <g transform="translate(8, 8)">
    <g transform="scale(0.4)">
      <g transform="translate(-12, -12)">
        <path d="M14.7 6.3a1 1 0 0 0 0 1.4l1.6 1.6a1 1 0 0 0 1.4 0l3.106-3.105c.32-.322.863-.22.983.218a6 6 0 0 1-8.259 7.057l-7.91 7.91a1 1 0 0 1-2.999-3l7.91-7.91a6 6 0 0 1 7.057-8.259c.438.12.54.662.219.984z" stroke="#FFFFFF" fill="none" stroke-width="2" stroke-linecap="round" stroke-linejoin="round"></path>
      </g>
    </g>
  </g>
</svg>